<svg width="484" height="153" viewBox="0 0 484 153" fill="none" xmlns="http://www.w3.org/2000/svg">
<path d="M24.8438 110.666L24.3593 66.6684C24.3289 63.9072 26.5427 61.6441 29.304 61.6137L37.3035 61.5256L37.843 110.523L24.8438 110.666Z" fill="#006DC7"/>
<path d="M24.3597 66.6684C24.3293 63.9071 26.5431 61.6441 29.3044 61.6137L73.3017 61.1292L73.4448 74.1284L24.4478 74.6679L24.3597 66.6684Z" fill="#006DC7"/>
<path d="M109.555 60.7297L110.039 104.727C110.07 107.488 107.856 109.751 105.094 109.782L97.095 109.87L96.5555 60.8729L109.555 60.7297Z" fill="#FFCB4A"/>
<path d="M109.416 105.081C109.446 107.842 107.232 110.105 104.471 110.136L60.4737 110.62L60.3305 97.6211L109.328 97.0816L109.416 105.081Z" fill="#FFCB4A"/>
<path d="M72.9043 25.1313L73.4438 74.1284L60.4446 74.2715L59.9601 30.2742C59.9297 27.5129 62.1435 25.2498 64.9048 25.2194L72.9043 25.1313Z" fill="#006DC7"/>
<path d="M110.047 37.7234L61.0498 38.2629L60.9618 30.2634C60.9314 27.5021 63.1452 25.239 65.9064 25.2086L109.904 24.7242L110.047 37.7234Z" fill="#006DC7"/>
<path d="M464.973 43.6206H470.2V56.108H470.38L478.91 43.6206H483.418V65.2936H478.18V52.7851H478.042L469.407 65.2936H464.973V43.6206ZM476.328 37.8638H479.735C479.728 39.1901 479.227 40.2554 478.233 41.0597C477.245 41.864 475.904 42.2661 474.211 42.2661C472.518 42.2661 471.174 41.864 470.179 41.0597C469.192 40.2554 468.701 39.1901 468.708 37.8638H472.084C472.077 38.3294 472.236 38.7527 472.56 39.1337C472.885 39.5146 473.435 39.7051 474.211 39.7051C474.966 39.7051 475.506 39.5182 475.83 39.1443C476.155 38.7703 476.321 38.3435 476.328 37.8638Z" fill="#00335E"/>
<path d="M441.284 51.2614H446.109C447.88 51.2614 449.418 51.5471 450.723 52.1186C452.028 52.69 453.037 53.4943 453.75 54.5314C454.469 55.5685 454.829 56.789 454.829 58.1929C454.829 59.5969 454.469 60.8315 453.75 61.8968C453.037 62.9621 452.028 63.7946 450.723 64.3943C449.418 64.994 447.88 65.2938 446.109 65.2938H438.014V43.6208H443.241V61.1455H446.109C446.871 61.1455 447.513 61.0149 448.035 60.7539C448.564 60.4858 448.963 60.126 449.231 59.6745C449.506 59.2159 449.64 58.708 449.633 58.1506C449.64 57.3463 449.34 56.6761 448.734 56.1399C448.127 55.5967 447.252 55.3251 446.109 55.3251H441.284V51.2614ZM461.697 43.6208V65.2938H456.47V43.6208H461.697Z" fill="#00335E"/>
<path d="M415.615 65.2938V43.6208H420.854V52.3197H429.394V43.6208H434.621V65.2938H429.394V56.5844H420.854V65.2938H415.615Z" fill="#00335E"/>
<path d="M398.563 51.2614H403.389C405.159 51.2614 406.697 51.5471 408.003 52.1186C409.308 52.69 410.317 53.4943 411.029 54.5314C411.749 55.5685 412.109 56.789 412.109 58.1929C412.109 59.5969 411.749 60.8315 411.029 61.8968C410.317 62.9621 409.308 63.7946 408.003 64.3943C406.697 64.994 405.159 65.2938 403.389 65.2938H395.293V43.6208H400.521V61.1455H403.389C404.151 61.1455 404.793 61.0149 405.315 60.7539C405.844 60.4858 406.242 60.126 406.51 59.6745C406.786 59.2159 406.92 58.708 406.913 58.1506C406.92 57.3463 406.62 56.6761 406.013 56.1399C405.406 55.5967 404.531 55.3251 403.389 55.3251H398.563V51.2614Z" fill="#00335E"/>
<path d="M372.332 65.2938V61.1878L372.925 61.1243C373.687 61.0326 374.307 60.7257 374.787 60.2036C375.267 59.6745 375.63 58.835 375.877 57.685C376.131 56.528 376.293 54.9653 376.364 52.9969L376.713 43.6208H391.92V65.2938H386.851V47.748H381.549L381.211 54.923C381.091 57.3993 380.777 59.3994 380.269 60.9232C379.761 62.4401 378.974 63.5477 377.909 64.2461C376.851 64.9446 375.429 65.2938 373.644 65.2938H372.332Z" fill="#00335E"/>
<path d="M354.881 65.2938V43.6208H369.993V47.875H360.119V52.3197H369.22V56.5844H360.119V61.0396H369.993V65.2938H354.881Z" fill="#00335E"/>
<path d="M334.004 47.875V43.6208H352.322V47.875H345.75V65.2938H340.586V47.875H334.004Z" fill="#00335E"/>
<path d="M312.973 43.6208H318.2V56.1082H318.38L326.91 43.6208H331.418V65.2938H326.18V52.7853H326.042L317.407 65.2938H312.973V43.6208Z" fill="#00335E"/>
<path d="M293.533 65.2938V43.6208H302.486C304.109 43.6208 305.509 43.9383 306.687 44.5733C307.872 45.2012 308.786 46.0795 309.428 47.2083C310.07 48.3301 310.391 49.6352 310.391 51.1238C310.391 52.6195 310.063 53.9282 309.407 55.0499C308.758 56.1646 307.83 57.0289 306.624 57.6427C305.417 58.2564 303.985 58.5633 302.327 58.5633H296.803V54.4362H301.354C302.144 54.4362 302.803 54.2986 303.333 54.0234C303.869 53.7483 304.274 53.3638 304.55 52.87C304.825 52.369 304.962 51.787 304.962 51.1238C304.962 50.4536 304.825 49.8751 304.55 49.3883C304.274 48.8945 303.869 48.5135 303.333 48.2454C302.796 47.9773 302.137 47.8433 301.354 47.8433H298.772V65.2938H293.533Z" fill="#00335E"/>
<path d="M290.474 54.4572C290.474 56.8418 290.015 58.8631 289.098 60.521C288.181 62.1789 286.939 63.4383 285.373 64.299C283.814 65.1597 282.064 65.59 280.124 65.59C278.177 65.59 276.424 65.1562 274.865 64.2884C273.306 63.4206 272.067 62.1613 271.15 60.5104C270.24 58.8525 269.785 56.8348 269.785 54.4572C269.785 52.0727 270.24 50.0514 271.15 48.3935C272.067 46.7356 273.306 45.4762 274.865 44.6155C276.424 43.7548 278.177 43.3245 280.124 43.3245C282.064 43.3245 283.814 43.7548 285.373 44.6155C286.939 45.4762 288.181 46.7356 289.098 48.3935C290.015 50.0514 290.474 52.0727 290.474 54.4572ZM285.119 54.4572C285.119 53.0462 284.918 51.854 284.516 50.8804C284.121 49.9068 283.549 49.1695 282.802 48.6686C282.061 48.1677 281.168 47.9173 280.124 47.9173C279.087 47.9173 278.195 48.1677 277.447 48.6686C276.699 49.1695 276.124 49.9068 275.722 50.8804C275.327 51.854 275.129 53.0462 275.129 54.4572C275.129 55.8682 275.327 57.0605 275.722 58.0341C276.124 59.0077 276.699 59.745 277.447 60.2459C278.195 60.7468 279.087 60.9972 280.124 60.9972C281.168 60.9972 282.061 60.7468 282.802 60.2459C283.549 59.745 284.121 59.0077 284.516 58.0341C284.918 57.0605 285.119 55.8682 285.119 54.4572Z" fill="#00335E"/>
<path d="M250.229 65.2938V43.6208H259.266C260.889 43.6208 262.247 43.8501 263.34 44.3087C264.441 44.7673 265.266 45.4093 265.817 46.2347C266.374 47.0602 266.653 48.0161 266.653 49.1026C266.653 49.928 266.48 50.6653 266.134 51.3143C265.788 51.9563 265.312 52.489 264.705 52.9123C264.099 53.3356 263.397 53.6319 262.599 53.8012V54.0129C263.474 54.0552 264.282 54.2915 265.023 54.7219C265.771 55.1522 266.37 55.7519 266.822 56.5209C267.273 57.2829 267.499 58.1859 267.499 59.23C267.499 60.3941 267.203 61.4347 266.61 62.3519C266.018 63.262 265.16 63.9816 264.039 64.5107C262.917 65.0328 261.555 65.2938 259.954 65.2938H250.229ZM255.467 61.0714H258.705C259.841 61.0714 260.677 60.8562 261.213 60.4259C261.756 59.9955 262.028 59.3958 262.028 58.6268C262.028 58.0695 261.897 57.5897 261.636 57.1876C261.375 56.7784 261.005 56.4645 260.525 56.2458C260.046 56.02 259.471 55.9071 258.8 55.9071H255.467V61.0714ZM255.467 52.5313H258.366C258.938 52.5313 259.446 52.4361 259.89 52.2456C260.335 52.0551 260.68 51.78 260.927 51.4201C261.181 51.0603 261.308 50.6265 261.308 50.1185C261.308 49.3918 261.051 48.8204 260.536 48.4041C260.021 47.9879 259.326 47.7798 258.451 47.7798H255.467V52.5313Z" fill="#00335E"/>
<path d="M229.354 47.875V43.6208H247.672V47.875H241.1V65.2938H235.936V47.875H229.354Z" fill="#00335E"/>
<path d="M227.993 54.4572C227.993 56.8418 227.535 58.8631 226.618 60.521C225.701 62.1789 224.459 63.4383 222.893 64.299C221.334 65.1597 219.584 65.59 217.644 65.59C215.697 65.59 213.943 65.1562 212.384 64.2884C210.825 63.4206 209.587 62.1613 208.67 60.5104C207.76 58.8525 207.305 56.8348 207.305 54.4572C207.305 52.0727 207.76 50.0514 208.67 48.3935C209.587 46.7356 210.825 45.4762 212.384 44.6155C213.943 43.7548 215.697 43.3245 217.644 43.3245C219.584 43.3245 221.334 43.7548 222.893 44.6155C224.459 45.4762 225.701 46.7356 226.618 48.3935C227.535 50.0514 227.993 52.0727 227.993 54.4572ZM222.639 54.4572C222.639 53.0462 222.438 51.854 222.036 50.8804C221.64 49.9068 221.069 49.1695 220.321 48.6686C219.58 48.1677 218.688 47.9173 217.644 47.9173C216.607 47.9173 215.714 48.1677 214.966 48.6686C214.219 49.1695 213.644 49.9068 213.241 50.8804C212.846 51.854 212.649 53.0462 212.649 54.4572C212.649 55.8682 212.846 57.0605 213.241 58.0341C213.644 59.0077 214.219 59.745 214.966 60.2459C215.714 60.7468 216.607 60.9972 217.644 60.9972C218.688 60.9972 219.58 60.7468 220.321 60.2459C221.069 59.745 221.64 59.0077 222.036 58.0341C222.438 57.0605 222.639 55.8682 222.639 54.4572Z" fill="#00335E"/>
<path d="M205.959 43.6208V47.875H196.393V65.2938H191.154V43.6208H205.959Z" fill="#00335E"/>
<path d="M172.851 65.2938H167.221L174.533 43.6208H181.507L188.82 65.2938H183.19L178.1 49.0814H177.93L172.851 65.2938ZM172.099 56.7643H183.867V60.7433H172.099V56.7643Z" fill="#00335E"/>
<path d="M145.307 65.2938V61.1878L145.899 61.1243C146.661 61.0326 147.282 60.7257 147.762 60.2036C148.242 59.6745 148.605 58.835 148.852 57.685C149.106 56.528 149.268 54.9653 149.339 52.9969L149.688 43.6208H164.895V65.2938H159.826V47.748H154.524L154.185 54.923C154.065 57.3993 153.751 59.3994 153.244 60.9232C152.736 62.4401 151.949 63.5477 150.884 64.2461C149.825 64.9446 148.404 65.2938 146.619 65.2938H145.307Z" fill="#00335E"/>
<path d="M126.926 65.2938V43.6208H141.731V47.875H132.164V51.2614H135.021C136.785 51.2614 138.32 51.5471 139.625 52.1186C140.937 52.69 141.949 53.4943 142.662 54.5314C143.382 55.5685 143.741 56.789 143.741 58.1929C143.741 59.5969 143.382 60.8315 142.662 61.8968C141.949 62.9621 140.937 63.7946 139.625 64.3943C138.32 64.994 136.785 65.2938 135.021 65.2938H126.926ZM132.164 61.1455H135.021C135.783 61.1455 136.425 61.0149 136.947 60.7539C137.477 60.4858 137.875 60.126 138.143 59.6745C138.418 59.2159 138.556 58.708 138.556 58.1506C138.556 57.3463 138.253 56.6761 137.646 56.1399C137.039 55.5967 136.164 55.3251 135.021 55.3251H132.164V61.1455Z" fill="#00335E"/>
<path d="M170.162 70.1101H176.649L182.152 83.5287H182.406L187.909 70.1101H194.396V91.7831H189.295V78.4703H189.115L183.909 91.6455H180.649L175.443 78.3962H175.263V91.7831H170.162V70.1101Z" fill="#00335E"/>
<path d="M167.105 80.9465C167.105 83.3311 166.646 85.3524 165.729 87.0103C164.812 88.6682 163.57 89.9275 162.004 90.7882C160.445 91.6489 158.695 92.0793 156.755 92.0793C154.808 92.0793 153.055 91.6454 151.496 90.7776C149.936 89.9099 148.698 88.6506 147.781 86.9997C146.871 85.3418 146.416 83.324 146.416 80.9465C146.416 78.5619 146.871 76.5407 147.781 74.8827C148.698 73.2248 149.936 71.9655 151.496 71.1048C153.055 70.2441 154.808 69.8137 156.755 69.8137C158.695 69.8137 160.445 70.2441 162.004 71.1048C163.57 71.9655 164.812 73.2248 165.729 74.8827C166.646 76.5407 167.105 78.5619 167.105 80.9465ZM161.75 80.9465C161.75 79.5355 161.549 78.3432 161.147 77.3696C160.752 76.396 160.18 75.6588 159.432 75.1579C158.692 74.657 157.799 74.4065 156.755 74.4065C155.718 74.4065 154.826 74.657 154.078 75.1579C153.33 75.6588 152.755 76.396 152.353 77.3696C151.958 78.3432 151.76 79.5355 151.76 80.9465C151.76 82.3575 151.958 83.5498 152.353 84.5234C152.755 85.497 153.33 86.2342 154.078 86.7351C154.826 87.236 155.718 87.4865 156.755 87.4865C157.799 87.4865 158.692 87.236 159.432 86.7351C160.18 86.2342 160.752 85.497 161.147 84.5234C161.549 83.5498 161.75 82.3575 161.75 80.9465Z" fill="#00335E"/>
<path d="M121.844 97.0002V87.6982H123.336C123.837 87.3596 124.295 86.8869 124.712 86.2802C125.128 85.6664 125.484 84.8057 125.78 83.698C126.077 82.5833 126.288 81.1124 126.415 79.2851L127.093 70.1101H141.919V87.6982H144.247V96.9896H139.21V91.7831H126.881V97.0002H121.844ZM129.347 87.6982H136.881V74.3643H131.791L131.453 79.2851C131.361 80.6609 131.213 81.8743 131.008 82.9255C130.804 83.9767 130.56 84.8939 130.278 85.677C129.996 86.453 129.685 87.1268 129.347 87.6982Z" fill="#00335E"/>
</svg>
