<svg width="143" height="28" viewBox="0 0 143 28" fill="none" xmlns="http://www.w3.org/2000/svg">
<path d="M84.8375 21.7627L107.412 22.1064C117.08 21.9016 139.049 21.1621 140.256 18.9447C141.588 16.7245 142.294 14.5176 142.372 12.324L139.13 1.29611C128.341 0.976699 120.252 0.874086 114.863 0.98825L78.4132 2.58243L42.151 4.17266C38.7674 4.24435 33.6834 3.94106 26.8988 3.26283L11.4673 2.76779C7.70773 2.84744 4.85152 4.14091 2.89865 6.6482C1.0769 9.4267 0.238556 14.2393 0.383608 21.086C2.60104 25.1488 5.02559 27.1524 7.65728 27.0967L33.3927 25.7295L46.1578 24.6371C65.1771 22.8642 78.0703 21.906 84.8375 21.7627Z" fill="#FFCB4A"/>
</svg>
