<svg width="456" height="230" viewBox="0 0 456 230" fill="none" xmlns="http://www.w3.org/2000/svg">
<path d="M439.074 221.022C436.335 221.022 434.143 220.131 432.5 218.349C430.856 216.568 430.034 213.985 430.034 210.601L429.624 171.055C429.35 167.67 429.213 162.059 429.213 154.221C428.665 137.655 428.391 118.951 428.391 98.109V84.4817C425.926 93.0322 421.68 105.056 415.653 120.554C409.627 136.586 405.381 149.768 402.916 160.1V161.703L401.683 166.78C401.135 170.699 399.765 174.707 397.574 178.804C394.835 183.079 390.589 185.217 384.836 185.217C374.975 185.217 370.044 176.844 370.044 160.1C370.044 150.837 368.537 140.95 365.524 130.44C362.785 119.752 358.265 106.659 351.965 91.1618L339.638 61.2352L338.816 93.2994C338.816 102.919 339.501 121.266 340.871 148.343L341.692 166.512L342.514 203.119C342.514 206.86 340.46 210.244 336.351 213.273C329.503 213.273 324.709 211.937 321.97 209.265C319.504 206.415 318.271 202.317 318.271 196.973L319.093 175.063C319.915 165.444 320.326 158.229 320.326 153.42L319.504 101.85L318.682 50.0128C318.682 42.353 318.956 30.8634 319.504 15.5438L330.598 11.2686C332.79 11.4468 334.981 12.5156 337.173 14.475C339.364 16.2564 341.829 19.1956 344.569 23.2927C351.417 34.337 360.32 56.4256 371.277 89.5586C372.92 94.19 374.016 98.0199 374.564 101.048C377.851 111.38 380.179 119.218 381.549 124.562L387.712 145.136L390.589 136.319L398.396 114.408C402.779 101.583 406.34 90.3602 409.079 80.7409C412.092 71.1217 414.968 60.7008 417.708 49.4784C420.721 36.1183 422.638 24.9849 423.46 16.0782V14.475C424.008 12.1593 425.652 10.378 428.391 9.13102C431.13 7.70595 434.417 6.99341 438.252 6.99341C440.718 6.99341 442.909 7.70595 444.827 9.13102C446.744 10.5561 447.703 12.0702 447.703 13.6734C447.703 35.0495 448.936 67.0246 451.401 109.599C452.771 130.44 453.729 150.837 454.277 170.788C454.825 179.873 455.099 191.362 455.099 205.257C455.099 209.354 453.455 213.005 450.168 216.212C446.881 219.418 443.183 221.022 439.074 221.022Z" fill="#FFCB4A"/>
<path d="M233.718 221.289C226.322 221.289 219.61 219.686 213.584 216.479C207.558 213.273 202.353 208.908 197.97 203.386C190.026 193.767 184.137 180.585 180.302 163.84C177.562 152.262 175.508 138.902 174.138 123.76L173.727 109.599V95.1698C173.453 90.5383 173.316 84.9271 173.316 78.3361C173.316 67.6481 174.001 58.207 175.371 50.0128C176.467 41.4624 179.206 33.001 183.589 24.6287C187.972 17.3252 194.272 12.1593 202.49 9.13102C207.421 7.70595 212.351 6.99341 217.282 6.99341C231.8 6.99341 243.305 10.7342 251.797 18.2159C261.111 26.5882 267.274 35.9402 270.287 46.272C274.67 58.7414 277.135 70.6763 277.683 82.0769C278.779 94.7244 279.327 106.659 279.327 117.882V133.112C279.327 136.141 278.642 141.841 277.272 150.213C276.177 156.804 275.629 162.415 275.629 167.047V168.116C273.985 173.103 273.164 178.982 273.164 185.751C273.164 190.739 271.52 195.905 268.233 201.249C264.946 206.593 260.289 211.135 254.262 214.876C248.236 219.151 241.388 221.289 233.718 221.289ZM234.54 206.593C240.018 206.593 244.675 203.297 248.51 196.706C251.797 190.828 254.125 183.702 255.495 175.33C257.139 166.78 258.508 157.16 259.604 146.472C260.152 141.841 260.426 135.873 260.426 128.57L260.015 103.987C259.467 94.3682 257.824 82.3441 255.084 67.9153C252.893 55.624 248.784 44.7578 242.757 35.3167C240.018 30.8634 236.594 27.3898 232.485 24.8959C228.376 22.402 223.993 21.1551 219.336 21.1551C212.488 21.1551 207.421 24.6287 204.133 31.5759C200.024 38.8794 197.285 46.8954 195.916 55.624C194.272 65.0651 193.313 74.0609 193.039 82.6113L192.628 91.429C192.354 93.9228 192.218 97.3074 192.218 101.583V102.651C192.218 114.586 194.135 129.282 197.97 146.74C202.353 170.431 208.79 187.265 217.282 197.241C222.761 203.475 228.513 206.593 234.54 206.593Z" fill="#FFCB4A"/>
<path d="M152.483 229.259C150.017 229.259 147.552 228.368 145.087 226.587C142.895 224.983 141.799 223.113 141.799 220.975C141.799 217.947 142.621 209.486 144.265 195.591C138.238 194.522 132.212 193.988 126.185 193.988C120.433 193.988 112.352 194.433 101.943 195.324L92.0812 196.126C72.0844 197.551 56.3335 198.53 44.8285 199.065C43.7328 199.065 36.4737 199.332 23.0511 199.866C23.0511 201.648 23.0511 204.231 23.0511 207.615C23.3251 211 23.3251 213.761 23.0511 215.898C22.7772 218.214 21.6815 220.085 19.764 221.51C18.1204 222.935 16.0659 223.647 13.6006 223.647C12.2309 223.647 10.4504 223.291 8.25896 222.579C6.06753 221.332 3.73913 218.927 1.27377 215.364C0.725912 214.295 0.451983 210.465 0.451983 203.874L0.0410894 196.66C-0.23284 195.235 0.862876 193.721 3.32824 192.118C5.7936 190.336 9.21771 189.357 13.6006 189.178C25.9274 188.644 33.8713 184.102 37.4324 175.551C39.3499 171.454 41.1304 166.555 42.774 160.855C44.4176 154.977 45.5133 149.811 46.0612 145.357C49.8962 121.844 51.8137 103.852 51.8137 91.3828C51.8137 87.1076 51.5397 80.8729 50.9919 72.6787C50.444 66.9784 50.1701 62.7923 50.1701 60.1202C50.1701 52.6386 50.0331 47.0274 49.7592 43.2866C49.7592 28.1452 49.4853 18.5259 48.9374 14.4288C48.3896 10.8662 49.3483 7.92696 51.8137 5.61121C54.279 3.11734 58.114 1.69227 63.3187 1.336C76.4673 0.445335 84.4112 0 87.1505 0C92.903 0 97.9707 0.445335 102.354 1.336C104.271 1.69227 105.915 1.8704 107.284 1.8704C108.928 1.8704 110.161 1.95947 110.982 2.1376C116.187 2.49387 119.748 3.20641 121.666 4.27521C123.857 5.34401 124.953 7.92695 124.953 12.024L124.542 30.4609C124.542 34.558 124.679 37.5863 124.953 39.5458C125.775 58.9624 127.281 88.8889 129.473 129.325L129.883 136.54C130.431 145.625 131.116 154.888 131.938 164.329C132.76 173.592 133.855 180.094 135.225 183.834C145.36 183.834 153.03 184.28 158.235 185.17C163.714 186.061 166.453 188.288 166.453 191.85C166.453 192.741 166.316 193.454 166.042 193.988C165.22 197.551 164.398 201.47 163.577 205.745C162.755 210.02 162.207 213.672 161.933 216.7C161.659 217.591 161.522 219.283 161.522 221.777C161.522 224.271 160.837 226.141 159.468 227.388C158.372 228.635 156.044 229.259 152.483 229.259ZM53.8681 187.041C65.921 186.328 75.7825 185.883 83.4525 185.705L112.626 184.369C113.174 180.45 113.448 177.6 113.448 175.818C113.448 173.324 113.174 169.049 112.626 162.993C112.626 161.746 112.352 159.697 111.804 156.847C111.53 153.997 111.393 151.414 111.393 149.098L108.517 106.613V80.1603L103.586 18.7041C103.586 15.8539 103.175 13.6272 102.354 12.024C99.3404 11.1334 94.4096 10.688 87.5614 10.688C81.535 10.688 75.7825 10.9552 70.3039 11.4896V53.4402V73.7475C69.4821 97.9737 68.1125 119.439 66.195 138.143C65.3732 146.872 63.5926 155.956 60.8533 165.397C58.388 174.839 56.0596 182.053 53.8681 187.041Z" fill="#FFCB4A"/>
</svg>
